#N struct 1004-scope float x float y float x1 float y1 float c1 float c2 float c3 float c4 array vector-min 1004-scope-element array vector-max 1004-scope-element float curx;
#N struct 1004-scope-element float y;
#N canvas 157 146 835 687 12;
#X obj 19 19 ys.granular.view gran1;
#X obj 19 539 ys.granular.model gran1;
#X obj 199 679 ossia.device;
#X msg 199 539 register;
#X msg 219 579 name ys.granular;
#X msg 239 619 expose oscquery;
#X obj 19 579 dac~ 1 2;
#X text 19 718 yann seznec // 2023 // yannseznec.com \; modified by Evan Montpellier \, 2023;
#X connect 1 0 6 0 empty;
#X connect 1 1 6 1 empty;
#X connect 3 0 2 0 empty;
#X connect 4 0 2 0 empty;
#X connect 5 0 2 0 empty;
