#N struct 1023-scope float x float y float x1 float y1 float c1 float c2 float c3 float c4 array vector-min 1023-scope-element array vector-max 1023-scope-element float curx;
#N struct 1023-scope-element float y;
#N canvas 157 146 835 687 12;
#X obj 19 39 ys.granular.view gran1;
#X obj 19 559 ys.granular.model gran1;
#X obj 341 793 ossia.device;
#X msg 341 753 register;
#X text 19 718 yann seznec // 2023 // yannseznec.com;
#X msg 779 779 name ys.granular;
#X msg 501 733 expose oscquery;
#X obj 19 599 dac~ 1 2;
#X connect 1 0 7 0 empty;
#X connect 1 1 7 1 empty;
#X connect 3 0 2 0 empty;
#X connect 5 0 2 0 empty;
#X connect 6 0 2 0 empty;
