#N canvas 236 25 1265 831 10;
#X obj 199 899 *~;
#X obj 562 1116 hsl 128 15 0 1 0 0 empty empty empty -2 -8 0 10 #fcfcfc #000000 #000000 0 1;
#X obj 199 1359 *~;
#X obj 399 1359 *~;
#X obj 559 1139 * 220.5;
#X obj 559 1219 +~;
#X obj 239 1259 expr~ 220.5-$v1;
#X obj 199 939 abs~;
#X floatatom 759 1119 5 0 0 0 - - - 0;
#X obj 559 1179 sig~;
#X obj 759 1179 *;
#X obj 759 1079 - 100;
#X obj 759 1039 random 200;
#X obj 839 539 tgl 15 0 empty empty empty 17 7 0 10 #fcfcfc #000000 #000000 0 1;
#X obj 199 779 *~;
#X obj 842 439 hsl 128 15 -1 1 0 0 empty empty empty -2 -8 0 10 #fcfcfc #000000 #000000 0 1;
#X obj 779 219 random 1000;
#X floatatom 779 339 5 0 0 0 - - - 0;
#X obj 779 259 / 1000;
#X obj 779 299 - 0.5;
#X floatatom 859 339 5 0 0 0 - - - 0;
#X obj 779 399 *;
#X obj 739 499 +;
#X obj 779 439 t b f;
#X obj 739 819 *;
#X obj 1279 159 random 1000;
#X floatatom 1279 279 5 0 0 0 - - - 0;
#X obj 1279 199 / 1000;
#X obj 1279 239 - 0.5;
#X floatatom 1379 279 5 0 0 0 - - - 0;
#X obj 1279 379 *, f 23;
#X obj 1279 559 +;
#X obj 1279 479 t b f;
#X obj 319 259 sel 0 1, f 13;
#X obj 799 639 s;
#X obj 799 579 spigot;
#X obj 739 699 abs;
#X obj 199 1199 *~;
#X obj 879 539 loadbang;
#X obj 399 1199 *~;
#X obj 239 1119 *~;
#X obj 280 1040 sel 1 2;
#X msg 278 1070 1;
#X msg 313 1070 0;
#X obj 739 739 clip 0 1;
#X obj 959 779 -;
#X obj 959 739 t b f;
#X obj 1579 519 * 4, f 33;
#X obj 279 1019 r num_channels;
#X obj 199 1399 *~ 0.8;
#X obj 399 1399 *~ 0.8;
#X obj 1739 479 t b f;
#X obj 879 579 symbol \$1-loc;
#X obj 1279 599 s \$0-grain_pitch;
#X obj 399 699 r \$0-grain_pitch;
#X text 1279 78 pitch controls;
#X text 739 58 location controls;
#X floatatom 739 899 15 0 0 0 - - - 0;
#X obj 619 939 i;
#X msg 399 639 1 \$1;
#X obj 99 159 s \$0-grainbang;
#X obj 99 119 bng 15 250 50 0 empty empty empty 17 7 0 10 #fcfcfc #000000 #000000;
#X obj 59 339 r \$0-grainbang;
#X obj 619 899 r \$0-grainbang;
#X obj 779 179 r \$0-grainbang;
#X obj 1279 119 r \$0-grainbang;
#X obj 399 599 f;
#X obj 399 459 t b b, f 47;
#X obj 439 559 / 44.1;
#X obj 59 699 line~;
#X obj 759 999 r \$0-grainbang;
#X obj 959 699 f, f 22;
#X obj 959 659 r \$0-grainbang;
#X obj 279 859 f, f 23;
#X obj 279 819 r \$0-grainbang;
#X obj 279 739 f;
#X obj 279 699 r \$0-grainbang;
#X obj 59 1119 *~ 441;
#X msg 619 659 0;
#X obj 99 599 f;
#X obj 59 459 t b b;
#X obj 119 559 / 44.1;
#X msg 99 639 0 \$1;
#X msg 59 639 1;
#X obj 59 379 bng 15 250 50 0 empty empty empty 17 7 0 10 #fcfcfc #000000 #000000;
#X msg 539 379 1;
#X msg 571 379 0;
#X obj 399 419 spigot;
#X obj 59 419 spigot;
#X msg 325 379 0;
#X msg 359 379 1;
#X obj 559 179 random 2;
#X floatatom 559 219 5 0 0 0 - - - 0;
#X obj 559 139 bng 15 250 50 0 empty empty empty 17 7 0 10 #fcfcfc #000000 #000000;
#X obj 559 99 spigot;
#X obj 559 59 r \$0-grainbang;
#X obj 319 219 i;
#X obj 419 159 sel 0;
#X obj 99 39 inlet;
#X obj 99 79 t b;
#X obj 739 859 %, f 17;
#X floatatom 879 779 5 0 0 0 - - - 0;
#X obj 839 499 r on_off;
#X obj 1398 476 bng 15 250 50 0 empty empty empty 17 7 0 10 #fcfcfc #000000 #000000;
#X msg 1399 499 1;
#X obj 419 -1 r \$2-reverse_random;
#X obj 319 159 r \$2-reverse;
#X obj 119 519 r \$2-grainsize;
#X obj 439 519 r \$2-grainsize;
#X obj 559 479 r samplerate;
#X obj 559 520 / 1000;
#X obj 399 819 r \$2-grainsize;
#X obj 739 99 r \$2-sample_offset;
#X obj 859 299 r \$2-offset_random;
#X obj 1079 659 r \$2-grainsize;
#X obj 1379 439 r \$2-reset_pitch;
#X obj 1739 439 r \$2-pitch_range;
#X obj 1579 439 r \$2-grain_pitch;
#X obj 1379 239 r \$2-random_pitch;
#X obj 199 979 tabread4~ \$2-poly_grain-L;
#X obj 399 979 tabread4~ \$2-poly_grain-R;
#X obj 819 1119 r \$2-random_panning;
#X obj 559 1079 r \$2-global_pan;
#X obj 279 1359 r \$2-volume;
#X obj 399 1439 throw~ \$2-grainoutR;
#X obj 199 1439 throw~ \$2-grainoutL;
#X obj 819 739 r \$2-samplelength;
#X obj 239 1299 tabread~ \$2-hann;
#X obj 559 1299 tabread~ \$2-hann;
#X obj 59 1159 tabread~ \$2-crown;
#X obj 1379 319 t b f;
#X obj 399 339 r \$0-grainbang;
#X obj 399 379 bng 15 250 50 0 empty empty empty 17 7 0 10 #fcfcfc #000000 #000000;
#X obj 239 479 r samplerate;
#X obj 239 520 / 1000;
#X connect 0 0 7 0 empty;
#X connect 1 0 4 0 empty;
#X connect 2 0 49 0 empty;
#X connect 3 0 50 0 empty;
#X connect 4 0 9 0 empty;
#X connect 5 0 6 0 empty;
#X connect 5 0 128 0 empty;
#X connect 6 0 127 0 empty;
#X connect 7 0 119 0 empty;
#X connect 7 0 120 0 empty;
#X connect 8 0 10 0 empty;
#X connect 9 0 5 0 empty;
#X connect 10 0 5 1 empty;
#X connect 11 0 8 0 empty;
#X connect 12 0 11 0 empty;
#X connect 13 0 35 1 empty;
#X connect 14 0 0 0 empty;
#X connect 16 0 18 0 empty;
#X connect 17 0 21 0 empty;
#X connect 18 0 19 0 empty;
#X connect 19 0 17 0 empty;
#X connect 20 0 21 1 empty;
#X connect 21 0 15 0 empty;
#X connect 21 0 23 0 empty;
#X connect 22 0 35 0 empty;
#X connect 22 0 36 0 empty;
#X connect 23 0 22 0 empty;
#X connect 23 1 22 1 empty;
#X connect 24 0 100 0 empty;
#X connect 25 0 27 0 empty;
#X connect 26 0 30 0 empty;
#X connect 27 0 28 0 empty;
#X connect 28 0 26 0 empty;
#X connect 29 0 130 0 empty;
#X connect 30 0 32 0 empty;
#X connect 31 0 53 0 empty;
#X connect 32 0 31 0 empty;
#X connect 32 1 31 1 empty;
#X connect 33 0 85 0 empty;
#X connect 33 0 89 0 empty;
#X connect 33 1 86 0 empty;
#X connect 33 1 90 0 empty;
#X connect 35 0 34 0 empty;
#X connect 36 0 44 0 empty;
#X connect 37 0 2 0 empty;
#X connect 38 0 52 0 empty;
#X connect 39 0 3 0 empty;
#X connect 40 0 39 0 empty;
#X connect 41 0 42 0 empty;
#X connect 41 1 43 0 empty;
#X connect 42 0 40 1 empty;
#X connect 43 0 40 1 empty;
#X connect 44 0 24 0 empty;
#X connect 45 0 24 1 empty;
#X connect 46 0 45 0 empty;
#X connect 46 1 45 1 empty;
#X connect 47 0 31 0 empty;
#X connect 48 0 41 0 empty;
#X connect 49 0 125 0 empty;
#X connect 50 0 124 0 empty;
#X connect 51 0 47 0 empty;
#X connect 51 1 47 1 empty;
#X connect 52 0 34 1 empty;
#X connect 54 0 75 1 empty;
#X connect 57 0 58 1 empty;
#X connect 58 0 119 1 empty;
#X connect 58 0 120 1 empty;
#X connect 59 0 69 0 empty;
#X connect 61 0 60 0 empty;
#X connect 62 0 84 0 empty;
#X connect 63 0 58 0 empty;
#X connect 64 0 16 0 empty;
#X connect 65 0 25 0 empty;
#X connect 66 0 59 0 empty;
#X connect 67 0 66 0 empty;
#X connect 67 1 78 0 empty;
#X connect 68 0 66 1 empty;
#X connect 69 0 14 0 empty;
#X connect 69 0 77 0 empty;
#X connect 70 0 12 0 empty;
#X connect 71 0 46 0 empty;
#X connect 72 0 71 0 empty;
#X connect 73 0 0 1 empty;
#X connect 74 0 73 0 empty;
#X connect 75 0 14 1 empty;
#X connect 76 0 75 0 empty;
#X connect 77 0 129 0 empty;
#X connect 78 0 69 0 empty;
#X connect 79 0 82 0 empty;
#X connect 80 0 79 0 empty;
#X connect 80 1 83 0 empty;
#X connect 81 0 79 1 empty;
#X connect 82 0 69 0 empty;
#X connect 83 0 69 0 empty;
#X connect 84 0 88 0 empty;
#X connect 85 0 87 1 empty;
#X connect 86 0 87 1 empty;
#X connect 87 0 67 0 empty;
#X connect 88 0 80 0 empty;
#X connect 89 0 88 1 empty;
#X connect 90 0 88 1 empty;
#X connect 91 0 92 0 empty;
#X connect 92 0 33 0 empty;
#X connect 93 0 91 0 empty;
#X connect 94 0 93 0 empty;
#X connect 95 0 94 0 empty;
#X connect 96 0 33 0 empty;
#X connect 97 0 96 0 empty;
#X connect 98 0 99 0 empty;
#X connect 99 0 61 0 empty;
#X connect 100 0 57 0 empty;
#X connect 102 0 13 0 empty;
#X connect 103 0 104 0 empty;
#X connect 104 0 31 0 empty;
#X connect 105 0 94 1 empty;
#X connect 105 0 97 0 empty;
#X connect 106 0 96 0 empty;
#X connect 107 0 81 0 empty;
#X connect 108 0 68 0 empty;
#X connect 109 0 110 0 empty;
#X connect 110 0 68 1 empty;
#X connect 111 0 73 1 empty;
#X connect 112 0 22 0 empty;
#X connect 113 0 20 0 empty;
#X connect 114 0 71 1 empty;
#X connect 115 0 103 0 empty;
#X connect 116 0 51 0 empty;
#X connect 117 0 47 0 empty;
#X connect 118 0 29 0 empty;
#X connect 119 0 37 0 empty;
#X connect 119 0 40 0 empty;
#X connect 120 0 39 0 empty;
#X connect 121 0 10 1 empty;
#X connect 122 0 1 0 empty;
#X connect 123 0 49 1 empty;
#X connect 123 0 50 1 empty;
#X connect 126 0 45 0 empty;
#X connect 126 0 101 0 empty;
#X connect 126 0 100 1 empty;
#X connect 127 0 2 1 empty;
#X connect 128 0 3 1 empty;
#X connect 129 0 37 1 empty;
#X connect 129 0 39 1 empty;
#X connect 130 0 30 0 empty;
#X connect 130 1 30 1 empty;
#X connect 131 0 132 0 empty;
#X connect 132 0 87 0 empty;
#X connect 133 0 134 0 empty;
#X connect 134 0 81 1 empty;
